<svg t="1585838232495" class="icon" viewBox="0 0 1024 1024" version="1.1" xmlns="http://www.w3.org/2000/svg" p-id="5971" data-spm-anchor-id="a313x.7781069.0.i10" width="200" height="200"><path d="M854.747 882.857c91.763-0.069 129.253-65.104 83.322-144.538l-352.057-608.749c-45.932-79.436-121.010-79.385-166.846 0.117l-351.157 609.247c-45.831 79.518-8.242 144.506 83.521 144.436l703.214-0.516zM503.606 282.1c36.705 0 64.169 75.045 60.997 166.741v0.199c-3.153 91.713-6.724 166.741-7.94 166.741s-24.126 0-50.921 0c-26.795 0-50.972 0-53.738 0-2.77 0-7.308-75.045-10.080-166.778v-0.149c-2.784-91.716 24.975-166.759 61.682-166.759v0zM441.040 722.15c0-35.723 28.947-64.65 64.65-64.65s64.65 28.93 64.65 64.65c0 35.723-28.947 64.65-64.65 64.65-35.706 0-64.65-28.93-64.65-64.65v0z" p-id="5972" fill="#d81e06"></path></svg>